# xmcd
#
# Track frame offsets:
#	150
#	17679
#	35727
#	52260
#	65728
#	85573
#	104322
#	120233
#	138934
#	148949
#	162846
#	177699
#	191902
#	211965
#	224010
#	240269
#	256082
#	269639
#	285805
#	302228
#	320821
#
# Disc length: 4513
#
# Revision: 2
# Processed by: cddbd v1.5.1PL0 Copyright (c) Steve Scherf et al.
# Submitted via: EasyCDDAExtractor 6.2.0.3
# Normalized: r1:DSETVAR1
#
DISCID=43119f15
DTITLE=Various Artist - 72 Saloon Tunes
DYEAR=2004
DGENRE=Country
TTITLE0=James, Anthony Michael - Old Friends
TTITLE1=Big and Rich - Wild West Show
TTITLE2=Johner, Brad - Different
TTITLE3=Brooks and Dunn - That's What She Gets For Lovin' Me
TTITLE4=Cagle, Chris - I'd Be Lyin'
TTITLE5=Diamond Rio - We All Fall Down
TTITLE6=Emerson Drive - Last One Standing
TTITLE7=Strait, George - Desparately
TTITLE8=Strait, George - Honk If You Honky Tonk
TTITLE9=Grand, Gil - Burnin'
TTITLE10=King, Jill - 98.6 And Fallin'
TTITLE11=Diffie, Joe - Tougher Than Nails
TTITLE12=Montgomery, John Michael - Letters From Home
TTITLE13=Vautour, J.R. - Kiss Me Goodbye
TTITLE14=Chesney, Kenny - When The Sun Goes Down   w Uncle Kracker
TTITLE15=Haggard, Merle - Reno Blues   w Willie Nelson
TTITLE16=Montgomery Gentry  (Troy Lee Gentry  Eddie Montgomery) - If You Ever Stop Lovin' Me
TTITLE17=Vincent, Rhonda - If Heartaches Had Wings
TTITLE18=Tippe, Rick - Work's For Me
TTITLE19=Austin, Sherrie - Drivin' Into The Sun
TTITLE20=Mavericks - Air That I Breathe
EXTD=
EXTT0=
EXTT1=
EXTT2=
EXTT3=
EXTT4=
EXTT5=
EXTT6=
EXTT7=
EXTT8=
EXTT9=
EXTT10=
EXTT11=
EXTT12=
EXTT13=
EXTT14=
EXTT15=
EXTT16=
EXTT17=
EXTT18=
EXTT19=
EXTT20=
PLAYORDER=
